<svg width="1440" height="560" viewBox="0 0 1440 560" fill="none" xmlns="http://www.w3.org/2000/svg">
<g filter="url(#filter0_ddd)">
<path fill-rule="evenodd" clip-rule="evenodd" d="M101 2H109C109 4.76142 111.239 7 114 7C116.761 7 119 4.76142 119 2H127C127 4.76142 129.239 7 132 7C134.761 7 137 4.76142 137 2H145C145 4.76142 147.239 7 150 7C152.761 7 155 4.76142 155 2H163C163 4.76142 165.239 7 168 7C170.761 7 173 4.76142 173 2H181C181 4.76142 183.239 7 186 7C188.761 7 191 4.76142 191 2H199C199 4.76142 201.239 7 204 7C206.761 7 209 4.76142 209 2H217C217 4.76142 219.239 7 222 7C224.761 7 227 4.76142 227 2H235C235 4.76142 237.239 7 240 7C242.761 7 245 4.76142 245 2H253C253 4.76142 255.239 7 258 7C260.761 7 263 4.76142 263 2H271C271 4.76142 273.239 7 276 7C278.761 7 281 4.76142 281 2H289C289 4.76142 291.239 7 294 7C296.761 7 299 4.76142 299 2H307C307 4.76142 309.239 7 312 7C314.761 7 317 4.76142 317 2H325C325 4.76142 327.239 7 330 7C332.761 7 335 4.76142 335 2H343C343 4.76142 345.239 7 348 7C350.761 7 353 4.76142 353 2H361C361 4.76142 363.239 7 366 7C368.761 7 371 4.76142 371 2H379C379 4.76142 381.239 7 384 7C386.761 7 389 4.76142 389 2H397C397 4.76142 399.239 7 402 7C404.761 7 407 4.76142 407 2H415C415 4.76142 417.239 7 420 7C422.761 7 425 4.76142 425 2H433C433 4.76142 435.239 7 438 7C440.761 7 443 4.76142 443 2H451C451 4.76142 453.239 7 456 7C458.761 7 461 4.76142 461 2H469C469 4.76142 471.239 7 474 7C476.761 7 479 4.76142 479 2H487C487 4.76142 489.239 7 492 7C494.761 7 497 4.76142 497 2H505C505 4.76142 507.239 7 510 7C512.761 7 515 4.76142 515 2H523C523 4.76142 525.239 7 528 7C530.761 7 533 4.76142 533 2H541C541 4.76142 543.239 7 546 7C548.761 7 551 4.76142 551 2H559C559 4.76142 561.239 7 564 7C566.761 7 569 4.76142 569 2H577C577 4.76142 579.239 7 582 7C584.761 7 587 4.76142 587 2H595C595 4.76142 597.239 7 600 7C602.761 7 605 4.76142 605 2H613C613 4.76142 615.239 7 618 7C620.761 7 623 4.76142 623 2H631C631 4.76142 633.239 7 636 7C638.761 7 641 4.76142 641 2H649C649 4.76142 651.239 7 654 7C656.761 7 659 4.76142 659 2H667C667 4.76142 669.239 7 672 7C674.761 7 677 4.76142 677 2H685C685 4.76142 687.239 7 690 7C692.761 7 695 4.76142 695 2H703C703 4.76142 705.239 7 708 7C710.761 7 713 4.76142 713 2H721C721 4.76142 723.239 7 726 7C728.761 7 731 4.76142 731 2H739C739 4.76142 741.239 7 744 7C746.761 7 749 4.76142 749 2H757C757 4.76142 759.239 7 762 7C764.761 7 767 4.76142 767 2H775C775 4.76142 777.239 7 780 7C782.761 7 785 4.76142 785 2H793C793 4.76142 795.239 7 798 7C800.761 7 803 4.76142 803 2H811C811 4.76142 813.239 7 816 7C818.761 7 821 4.76142 821 2H829C829 4.76142 831.239 7 834 7C836.761 7 839 4.76142 839 2H847C847 4.76142 849.239 7 852 7C854.761 7 857 4.76142 857 2H865C865 4.76142 867.239 7 870 7C872.761 7 875 4.76142 875 2H883C883 4.76142 885.239 7 888 7C890.761 7 893 4.76142 893 2H901C901 4.76142 903.239 7 906 7C908.761 7 911 4.76142 911 2H919C919 4.76142 921.239 7 924 7C926.761 7 929 4.76142 929 2H937C937 4.76142 939.239 7 942 7C944.761 7 947 4.76142 947 2H955C955 4.76142 957.239 7 960 7C962.761 7 965 4.76142 965 2H973C973 4.76142 975.239 7 978 7C980.761 7 983 4.76142 983 2H991C991 4.76142 993.239 7 996 7C998.761 7 1001 4.76142 1001 2H1009C1009 4.76142 1011.24 7 1014 7C1016.76 7 1019 4.76142 1019 2H1027C1027 4.76142 1029.24 7 1032 7C1034.76 7 1037 4.76142 1037 2H1045C1045 4.76142 1047.24 7 1050 7C1052.76 7 1055 4.76142 1055 2H1063C1063 4.76142 1065.24 7 1068 7C1070.76 7 1073 4.76142 1073 2H1081C1081 4.76142 1083.24 7 1086 7C1088.76 7 1091 4.76142 1091 2H1099C1099 4.76142 1101.24 7 1104 7C1106.76 7 1109 4.76142 1109 2H1117C1117 4.76142 1119.24 7 1122 7C1124.76 7 1127 4.76142 1127 2H1135C1135 4.76142 1137.24 7 1140 7C1142.76 7 1145 4.76142 1145 2H1153C1153 4.76142 1155.24 7 1158 7C1160.76 7 1163 4.76142 1163 2H1171C1171 4.76142 1173.24 7 1176 7C1178.76 7 1181 4.76142 1181 2H1189C1189 4.76142 1191.24 7 1194 7C1196.76 7 1199 4.76142 1199 2H1207C1207 4.76142 1209.24 7 1212 7C1214.76 7 1217 4.76142 1217 2H1225C1225 4.76142 1227.24 7 1230 7C1232.76 7 1235 4.76142 1235 2H1243C1243 4.76142 1245.24 7 1248 7C1250.76 7 1253 4.76142 1253 2H1261C1261 4.76142 1263.24 7 1266 7C1268.76 7 1271 4.76142 1271 2H1279C1279 4.76142 1281.24 7 1284 7C1286.76 7 1289 4.76142 1289 2H1297C1297 4.76142 1299.24 7 1302 7C1304.76 7 1307 4.76142 1307 2H1315C1315 4.76142 1317.24 7 1320 7C1322.76 7 1325 4.76142 1325 2H1333C1333 4.76142 1335.24 7 1338 7C1340.76 7 1343 4.76142 1343 2H1351C1351 4.76142 1353.24 7 1356 7C1358.76 7 1361 4.76142 1361 2H1369C1369 4.76142 1371.24 7 1374 7C1376.76 7 1379 4.76142 1379 2H1387C1387 4.76142 1389.24 7 1392 7C1394.76 7 1397 4.76142 1397 2H1405C1405 4.76142 1407.24 7 1410 7C1412.76 7 1415 4.76142 1415 2H1423C1423 4.76142 1425.24 7 1428 7C1430.76 7 1433 4.76142 1433 2H1440V556H1433C1433 553.239 1430.76 551 1428 551C1425.24 551 1423 553.239 1423 556H1415C1415 553.239 1412.76 551 1410 551C1407.24 551 1405 553.239 1405 556H1397C1397 553.239 1394.76 551 1392 551C1389.24 551 1387 553.239 1387 556H1379C1379 553.239 1376.76 551 1374 551C1371.24 551 1369 553.239 1369 556H1361C1361 553.239 1358.76 551 1356 551C1353.24 551 1351 553.239 1351 556H1343C1343 553.239 1340.76 551 1338 551C1335.24 551 1333 553.239 1333 556H1325C1325 553.239 1322.76 551 1320 551C1317.24 551 1315 553.239 1315 556H1307C1307 553.239 1304.76 551 1302 551C1299.24 551 1297 553.239 1297 556H1289C1289 553.239 1286.76 551 1284 551C1281.24 551 1279 553.239 1279 556H1271C1271 553.239 1268.76 551 1266 551C1263.24 551 1261 553.239 1261 556H1253C1253 553.239 1250.76 551 1248 551C1245.24 551 1243 553.239 1243 556H1235C1235 553.239 1232.76 551 1230 551C1227.24 551 1225 553.239 1225 556H1217C1217 553.239 1214.76 551 1212 551C1209.24 551 1207 553.239 1207 556H1199C1199 553.239 1196.76 551 1194 551C1191.24 551 1189 553.239 1189 556H1181C1181 553.239 1178.76 551 1176 551C1173.24 551 1171 553.239 1171 556H1163C1163 553.239 1160.76 551 1158 551C1155.24 551 1153 553.239 1153 556H1145C1145 553.239 1142.76 551 1140 551C1137.24 551 1135 553.239 1135 556H1127C1127 553.239 1124.76 551 1122 551C1119.24 551 1117 553.239 1117 556H1109C1109 553.239 1106.76 551 1104 551C1101.24 551 1099 553.239 1099 556H1091C1091 553.239 1088.76 551 1086 551C1083.24 551 1081 553.239 1081 556H1073C1073 553.239 1070.76 551 1068 551C1065.24 551 1063 553.239 1063 556H1055C1055 553.239 1052.76 551 1050 551C1047.24 551 1045 553.239 1045 556H1037C1037 553.239 1034.76 551 1032 551C1029.24 551 1027 553.239 1027 556H1019C1019 553.239 1016.76 551 1014 551C1011.24 551 1009 553.239 1009 556H1001C1001 553.239 998.761 551 996 551C993.239 551 991 553.239 991 556H983C983 553.239 980.761 551 978 551C975.239 551 973 553.239 973 556H965C965 553.239 962.761 551 960 551C957.239 551 955 553.239 955 556H947C947 553.239 944.761 551 942 551C939.239 551 937 553.239 937 556H929C929 553.239 926.761 551 924 551C921.239 551 919 553.239 919 556H911C911 553.239 908.761 551 906 551C903.239 551 901 553.239 901 556H893C893 553.239 890.761 551 888 551C885.239 551 883 553.239 883 556H875C875 553.239 872.761 551 870 551C867.239 551 865 553.239 865 556H857C857 553.239 854.761 551 852 551C849.239 551 847 553.239 847 556H839C839 553.239 836.761 551 834 551C831.239 551 829 553.239 829 556H821C821 553.239 818.761 551 816 551C813.239 551 811 553.239 811 556H803C803 553.239 800.761 551 798 551C795.239 551 793 553.239 793 556H785C785 553.239 782.761 551 780 551C777.239 551 775 553.239 775 556H767C767 553.239 764.761 551 762 551C759.239 551 757 553.239 757 556H749C749 553.239 746.761 551 744 551C741.239 551 739 553.239 739 556H731C731 553.239 728.761 551 726 551C723.239 551 721 553.239 721 556H713C713 553.239 710.761 551 708 551C705.239 551 703 553.239 703 556H695C695 553.239 692.761 551 690 551C687.239 551 685 553.239 685 556H677C677 553.239 674.761 551 672 551C669.239 551 667 553.239 667 556H659C659 553.239 656.761 551 654 551C651.239 551 649 553.239 649 556H641C641 553.239 638.761 551 636 551C633.239 551 631 553.239 631 556H623C623 553.239 620.761 551 618 551C615.239 551 613 553.239 613 556H605C605 553.239 602.761 551 600 551C597.239 551 595 553.239 595 556H587C587 553.239 584.761 551 582 551C579.239 551 577 553.239 577 556H569C569 553.239 566.761 551 564 551C561.239 551 559 553.239 559 556H551C551 553.239 548.761 551 546 551C543.239 551 541 553.239 541 556H533C533 553.239 530.761 551 528 551C525.239 551 523 553.239 523 556H515C515 553.239 512.761 551 510 551C507.239 551 505 553.239 505 556H497C497 553.239 494.761 551 492 551C489.239 551 487 553.239 487 556H479C479 553.239 476.761 551 474 551C471.239 551 469 553.239 469 556H461C461 553.239 458.761 551 456 551C453.239 551 451 553.239 451 556H443C443 553.239 440.761 551 438 551C435.239 551 433 553.239 433 556H425C425 553.239 422.761 551 420 551C417.239 551 415 553.239 415 556H407C407 553.239 404.761 551 402 551C399.239 551 397 553.239 397 556H389C389 553.239 386.761 551 384 551C381.239 551 379 553.239 379 556H371C371 553.239 368.761 551 366 551C363.239 551 361 553.239 361 556H353C353 553.239 350.761 551 348 551C345.239 551 343 553.239 343 556H335C335 553.239 332.761 551 330 551C327.239 551 325 553.239 325 556H317C317 553.239 314.761 551 312 551C309.239 551 307 553.239 307 556H299C299 553.239 296.761 551 294 551C291.239 551 289 553.239 289 556H281C281 553.239 278.761 551 276 551C273.239 551 271 553.239 271 556H263C263 553.239 260.761 551 258 551C255.239 551 253 553.239 253 556H245C245 553.239 242.761 551 240 551C237.239 551 235 553.239 235 556H227C227 553.239 224.761 551 222 551C219.239 551 217 553.239 217 556H209C209 553.239 206.761 551 204 551C201.239 551 199 553.239 199 556H191C191 553.239 188.761 551 186 551C183.239 551 181 553.239 181 556H173C173 553.239 170.761 551 168 551C165.239 551 163 553.239 163 556H155C155 553.239 152.761 551 150 551C147.239 551 145 553.239 145 556H137C137 553.239 134.761 551 132 551C129.239 551 127 553.239 127 556H119C119 553.239 116.761 551 114 551C111.239 551 109 553.239 109 556H101C101 553.239 98.7614 551 96 551C93.2386 551 91 553.239 91 556H83C83 553.239 80.7614 551 78 551C75.2386 551 73 553.239 73 556H65C65 553.239 62.7614 551 60 551C57.2386 551 55 553.239 55 556H47C47 553.239 44.7614 551 42 551C39.2386 551 37 553.239 37 556H29C29 553.239 26.7614 551 24 551C21.2386 551 19 553.239 19 556H11C11 553.239 8.76142 551 6 551C3.23858 551 1 553.239 1 556H0V2H1C1 4.76142 3.23858 7 6 7C8.76142 7 11 4.76142 11 2H19C19 4.76142 21.2386 7 24 7C26.7614 7 29 4.76142 29 2H37C37 4.76142 39.2386 7 42 7C44.7614 7 47 4.76142 47 2H55C55 4.76142 57.2386 7 60 7C62.7614 7 65 4.76142 65 2H73C73 4.76142 75.2386 7 78 7C80.7614 7 83 4.76142 83 2H91C91 4.76142 93.2386 7 96 7C98.7614 7 101 4.76142 101 2Z" fill="#FFCB29"/>
</g>
<defs>
<filter id="filter0_ddd" x="-3" y="0" width="1446" height="560" filterUnits="userSpaceOnUse" color-interpolation-filters="sRGB">
<feFlood flood-opacity="0" result="BackgroundImageFix"/>
<feColorMatrix in="SourceAlpha" type="matrix" values="0 0 0 0 0 0 0 0 0 0 0 0 0 0 0 0 0 0 127 0"/>
<feOffset dy="1"/>
<feGaussianBlur stdDeviation="1.5"/>
<feColorMatrix type="matrix" values="0 0 0 0 0 0 0 0 0 0 0 0 0 0 0 0 0 0 0.2 0"/>
<feBlend mode="normal" in2="BackgroundImageFix" result="effect1_dropShadow"/>
<feColorMatrix in="SourceAlpha" type="matrix" values="0 0 0 0 0 0 0 0 0 0 0 0 0 0 0 0 0 0 127 0"/>
<feOffset dy="2"/>
<feGaussianBlur stdDeviation="1"/>
<feColorMatrix type="matrix" values="0 0 0 0 0 0 0 0 0 0 0 0 0 0 0 0 0 0 0.12 0"/>
<feBlend mode="normal" in2="effect1_dropShadow" result="effect2_dropShadow"/>
<feColorMatrix in="SourceAlpha" type="matrix" values="0 0 0 0 0 0 0 0 0 0 0 0 0 0 0 0 0 0 127 0"/>
<feOffset/>
<feGaussianBlur stdDeviation="1"/>
<feColorMatrix type="matrix" values="0 0 0 0 0 0 0 0 0 0 0 0 0 0 0 0 0 0 0.14 0"/>
<feBlend mode="normal" in2="effect2_dropShadow" result="effect3_dropShadow"/>
<feBlend mode="normal" in="SourceGraphic" in2="effect3_dropShadow" result="shape"/>
</filter>
</defs>
</svg>
