<svg width="334" height="10" viewBox="0 0 334 10" fill="none" xmlns="http://www.w3.org/2000/svg">
<circle r="5" transform="matrix(4.37114e-08 1 1 -4.37114e-08 131 5)" fill="#FFECB3"/>
<circle r="5" transform="matrix(4.37114e-08 1 1 -4.37114e-08 275 5)" fill="#FFECB3"/>
<circle r="5" transform="matrix(4.37114e-08 1 1 -4.37114e-08 293 5)" fill="#FFECB3"/>
<circle r="5" transform="matrix(4.37114e-08 1 1 -4.37114e-08 311 5)" fill="#FFECB3"/>
<circle r="5" transform="matrix(4.37114e-08 1 1 -4.37114e-08 329 5)" fill="#FFECB3"/>
<circle r="5" transform="matrix(4.37114e-08 1 1 -4.37114e-08 113 5)" fill="#FFECB3"/>
<circle r="5" transform="matrix(4.37114e-08 1 1 -4.37114e-08 257 5)" fill="#FFECB3"/>
<circle r="5" transform="matrix(4.37114e-08 1 1 -4.37114e-08 95 5)" fill="#FFECB3"/>
<circle r="5" transform="matrix(4.37114e-08 1 1 -4.37114e-08 239 5)" fill="#FFECB3"/>
<circle r="5" transform="matrix(4.37114e-08 1 1 -4.37114e-08 77 5)" fill="#FFECB3"/>
<circle r="5" transform="matrix(4.37114e-08 1 1 -4.37114e-08 221 5)" fill="#FFECB3"/>
<circle r="5" transform="matrix(4.37114e-08 1 1 -4.37114e-08 59 5)" fill="#FFECB3"/>
<circle r="5" transform="matrix(4.37114e-08 1 1 -4.37114e-08 203 5)" fill="#FFECB3"/>
<circle r="5" transform="matrix(4.37114e-08 1 1 -4.37114e-08 41 5)" fill="#FFECB3"/>
<circle r="5" transform="matrix(4.37114e-08 1 1 -4.37114e-08 185 5)" fill="#FFECB3"/>
<circle r="5" transform="matrix(4.37114e-08 1 1 -4.37114e-08 23 5)" fill="#FFECB3"/>
<circle r="5" transform="matrix(4.37114e-08 1 1 -4.37114e-08 167 5)" fill="#FFECB3"/>
<circle r="5" transform="matrix(4.37114e-08 1 1 -4.37114e-08 5 5)" fill="#FFECB3"/>
<circle r="5" transform="matrix(4.37114e-08 1 1 -4.37114e-08 149 5)" fill="#FFECB3"/>
</svg>
