<svg width="10" height="172" viewBox="0 0 10 172" fill="none" xmlns="http://www.w3.org/2000/svg">
<circle r="5" transform="matrix(1 8.74228e-08 8.74228e-08 -1 5.00001 5)" fill="#FFECB3"/>
<circle r="5" transform="matrix(1 8.74228e-08 8.74228e-08 -1 5.00001 23)" fill="#FFECB3"/>
<circle r="5" transform="matrix(1 8.74228e-08 8.74228e-08 -1 5.00001 41)" fill="#FFECB3"/>
<circle r="5" transform="matrix(1 8.74228e-08 8.74228e-08 -1 5.00001 59)" fill="#FFECB3"/>
<circle r="5" transform="matrix(1 8.74228e-08 8.74228e-08 -1 5.00001 77)" fill="#FFECB3"/>
<circle r="5" transform="matrix(1 8.74228e-08 8.74228e-08 -1 5 95)" fill="#FFECB3"/>
<circle r="5" transform="matrix(1 8.74228e-08 8.74228e-08 -1 5 113)" fill="#FFECB3"/>
<circle r="5" transform="matrix(1 8.74228e-08 8.74228e-08 -1 5 131)" fill="#FFECB3"/>
<circle r="5" transform="matrix(1 8.74228e-08 8.74228e-08 -1 5 149)" fill="#FFECB3"/>
<circle r="5" transform="matrix(1 8.74228e-08 8.74228e-08 -1 5 167)" fill="#FFECB3"/>
</svg>
